<?xml version="1.0" encoding="UTF-8" standalone="no"?>
<!DOCTYPE svg PUBLIC "-//W3C//DTD SVG 1.1//EN"
 "http://www.w3.org/Graphics/SVG/1.1/DTD/svg11.dtd">
<!-- Generated by graphviz version 2.40.1 (20161225.0304)
 -->
<!-- Title: FST Pages: 1 -->
<svg width="612pt" height="48pt"
 viewBox="0.00 0.00 612.00 48.21" xmlns="http://www.w3.org/2000/svg" xmlns:xlink="http://www.w3.org/1999/xlink">
<g id="graph0" class="graph" transform="scale(.492 .492) rotate(0) translate(4 94)">
<title>FST</title>
<polygon fill="#ffffff" stroke="transparent" points="-4,4 -4,-94 1240,-94 1240,4 -4,4"/>
<!-- 0 -->
<g id="node1" class="node">
<title>0</title>
<ellipse fill="none" stroke="#000000" stroke-width="2" cx="18" cy="-45" rx="18" ry="18"/>
<text text-anchor="middle" x="18" y="-41.3" font-family="Times,serif" font-size="14.00" fill="#000000">0</text>
</g>
<!-- 1 -->
<g id="node2" class="node">
<title>1</title>
<ellipse fill="none" stroke="#000000" cx="232" cy="-45" rx="18" ry="18"/>
<text text-anchor="middle" x="232" y="-41.3" font-family="Times,serif" font-size="14.00" fill="#000000">1</text>
</g>
<!-- 0&#45;&gt;1 -->
<g id="edge1" class="edge">
<title>0&#45;&gt;1</title>
<path fill="none" stroke="#000000" d="M36.2455,-45C73.5965,-45 159.0024,-45 203.6404,-45"/>
<polygon fill="#000000" stroke="#000000" points="203.8007,-48.5001 213.8007,-45 203.8006,-41.5001 203.8007,-48.5001"/>
<text text-anchor="middle" x="125" y="-48.8" font-family="Times,serif" font-size="14.00" fill="#000000">&lt;eps&gt;:__label__LightState</text>
</g>
<!-- 2 -->
<g id="node3" class="node">
<title>2</title>
<ellipse fill="none" stroke="#000000" cx="346" cy="-45" rx="18" ry="18"/>
<text text-anchor="middle" x="346" y="-41.3" font-family="Times,serif" font-size="14.00" fill="#000000">2</text>
</g>
<!-- 1&#45;&gt;2 -->
<g id="edge2" class="edge">
<title>1&#45;&gt;2</title>
<path fill="none" stroke="#000000" d="M250.0636,-45C268.2173,-45 296.464,-45 317.6141,-45"/>
<polygon fill="#000000" stroke="#000000" points="317.6434,-48.5001 327.6434,-45 317.6433,-41.5001 317.6434,-48.5001"/>
<text text-anchor="middle" x="289" y="-48.8" font-family="Times,serif" font-size="14.00" fill="#000000">turn:turn</text>
</g>
<!-- 3 -->
<g id="node4" class="node">
<title>3</title>
<ellipse fill="none" stroke="#000000" cx="533" cy="-45" rx="18" ry="18"/>
<text text-anchor="middle" x="533" y="-41.3" font-family="Times,serif" font-size="14.00" fill="#000000">3</text>
</g>
<!-- 2&#45;&gt;3 -->
<g id="edge3" class="edge">
<title>2&#45;&gt;3</title>
<path fill="none" stroke="#000000" d="M364.2708,-45C397.0326,-45 465.9689,-45 504.8239,-45"/>
<polygon fill="#000000" stroke="#000000" points="504.9304,-48.5001 514.9303,-45 504.9303,-41.5001 504.9304,-48.5001"/>
<text text-anchor="middle" x="439.5" y="-48.8" font-family="Times,serif" font-size="14.00" fill="#000000">&lt;eps&gt;:__begin__state</text>
</g>
<!-- 4 -->
<g id="node5" class="node">
<title>4</title>
<ellipse fill="none" stroke="#000000" cx="635" cy="-45" rx="18" ry="18"/>
<text text-anchor="middle" x="635" y="-41.3" font-family="Times,serif" font-size="14.00" fill="#000000">4</text>
</g>
<!-- 3&#45;&gt;4 -->
<g id="edge4" class="edge">
<title>3&#45;&gt;4</title>
<path fill="none" stroke="#000000" d="M551.2356,-45C566.683,-45 589.0851,-45 606.836,-45"/>
<polygon fill="#000000" stroke="#000000" points="606.9224,-48.5001 616.9223,-45 606.9223,-41.5001 606.9224,-48.5001"/>
<text text-anchor="middle" x="584" y="-48.8" font-family="Times,serif" font-size="14.00" fill="#000000">on:on</text>
</g>
<!-- 3&#45;&gt;4 -->
<g id="edge5" class="edge">
<title>3&#45;&gt;4</title>
<path fill="none" stroke="#000000" d="M547.7129,-34.3344C553.1808,-30.9798 559.6133,-27.7072 566,-26 581.4573,-21.8681 586.5427,-21.8681 602,-26 605.1933,-26.8536 608.3981,-28.0986 611.4881,-29.5494"/>
<polygon fill="#000000" stroke="#000000" points="609.83,-32.6318 620.2871,-34.3344 613.1742,-26.4822 609.83,-32.6318"/>
<text text-anchor="middle" x="584" y="-29.8" font-family="Times,serif" font-size="14.00" fill="#000000">off:off</text>
</g>
<!-- 5 -->
<g id="node6" class="node">
<title>5</title>
<ellipse fill="none" stroke="#000000" cx="811" cy="-45" rx="18" ry="18"/>
<text text-anchor="middle" x="811" y="-41.3" font-family="Times,serif" font-size="14.00" fill="#000000">5</text>
</g>
<!-- 4&#45;&gt;5 -->
<g id="edge6" class="edge">
<title>4&#45;&gt;5</title>
<path fill="none" stroke="#000000" d="M653.1722,-45C683.8158,-45 745.9875,-45 782.4868,-45"/>
<polygon fill="#000000" stroke="#000000" points="782.9267,-48.5001 792.9267,-45 782.9266,-41.5001 782.9267,-48.5001"/>
<text text-anchor="middle" x="723" y="-48.8" font-family="Times,serif" font-size="14.00" fill="#000000">&lt;eps&gt;:__end__state</text>
</g>
<!-- 6 -->
<g id="node7" class="node">
<title>6</title>
<ellipse fill="none" stroke="#000000" cx="941" cy="-72" rx="18" ry="18"/>
<text text-anchor="middle" x="941" y="-68.3" font-family="Times,serif" font-size="14.00" fill="#000000">6</text>
</g>
<!-- 5&#45;&gt;6 -->
<g id="edge7" class="edge">
<title>5&#45;&gt;6</title>
<path fill="none" stroke="#000000" d="M828.8034,-48.6976C850.5613,-53.2166 887.6271,-60.9149 913.1653,-66.219"/>
<polygon fill="#000000" stroke="#000000" points="912.4917,-69.6537 922.9945,-68.2604 913.9152,-62.7999 912.4917,-69.6537"/>
<text text-anchor="middle" x="876" y="-67.8" font-family="Times,serif" font-size="14.00" fill="#000000">the:the</text>
</g>
<!-- 7 -->
<g id="node8" class="node">
<title>7</title>
<ellipse fill="none" stroke="#000000" cx="941" cy="-18" rx="18" ry="18"/>
<text text-anchor="middle" x="941" y="-14.3" font-family="Times,serif" font-size="14.00" fill="#000000">7</text>
</g>
<!-- 5&#45;&gt;7 -->
<g id="edge8" class="edge">
<title>5&#45;&gt;7</title>
<path fill="none" stroke="#000000" d="M827.928,-38.1262C833.0291,-36.2511 838.6855,-34.3632 844,-33 866.8403,-27.1412 893.3294,-23.2336 912.8496,-20.8795"/>
<polygon fill="#000000" stroke="#000000" points="913.3722,-24.3426 922.9097,-19.729 912.5768,-17.388 913.3722,-24.3426"/>
<text text-anchor="middle" x="876" y="-36.8" font-family="Times,serif" font-size="14.00" fill="#000000">&lt;eps&gt;:light</text>
</g>
<!-- 8 -->
<g id="node9" class="node">
<title>8</title>
<ellipse fill="none" stroke="#000000" cx="1071" cy="-45" rx="18" ry="18"/>
<text text-anchor="middle" x="1071" y="-41.3" font-family="Times,serif" font-size="14.00" fill="#000000">8</text>
</g>
<!-- 6&#45;&gt;8 -->
<g id="edge9" class="edge">
<title>6&#45;&gt;8</title>
<path fill="none" stroke="#000000" d="M958.8034,-68.3024C980.5613,-63.7834 1017.6271,-56.0851 1043.1653,-50.781"/>
<polygon fill="#000000" stroke="#000000" points="1043.9152,-54.2001 1052.9945,-48.7396 1042.4917,-47.3463 1043.9152,-54.2001"/>
<text text-anchor="middle" x="1006" y="-67.8" font-family="Times,serif" font-size="14.00" fill="#000000">light:light</text>
</g>
<!-- 7&#45;&gt;8 -->
<g id="edge10" class="edge">
<title>7&#45;&gt;8</title>
<path fill="none" stroke="#000000" d="M959.0903,-19.729C978.7346,-21.8532 1010.9301,-26.0563 1038,-33 1040.159,-33.5538 1042.3745,-34.1942 1044.5862,-34.8852"/>
<polygon fill="#000000" stroke="#000000" points="1043.4775,-38.2049 1054.072,-38.1262 1045.7408,-31.5809 1043.4775,-38.2049"/>
<text text-anchor="middle" x="1006" y="-36.8" font-family="Times,serif" font-size="14.00" fill="#000000">light:&lt;eps&gt;</text>
</g>
<!-- 9 -->
<g id="node10" class="node">
<title>9</title>
<ellipse fill="none" stroke="#000000" cx="1214" cy="-45" rx="18" ry="18"/>
<ellipse fill="none" stroke="#000000" cx="1214" cy="-45" rx="22" ry="22"/>
<text text-anchor="middle" x="1214" y="-41.3" font-family="Times,serif" font-size="14.00" fill="#000000">9</text>
</g>
<!-- 8&#45;&gt;9 -->
<g id="edge11" class="edge">
<title>8&#45;&gt;9</title>
<path fill="none" stroke="#000000" d="M1089.111,-45C1112.3022,-45 1152.9034,-45 1181.5051,-45"/>
<polygon fill="#000000" stroke="#000000" points="1181.8181,-48.5001 1191.818,-45 1181.818,-41.5001 1181.8181,-48.5001"/>
<text text-anchor="middle" x="1140.5" y="-48.8" font-family="Times,serif" font-size="14.00" fill="#000000">&lt;eps&gt;:&lt;eps&gt;</text>
</g>
</g>
</svg>
