<?xml version="1.0" encoding="UTF-8" standalone="no"?>
<!DOCTYPE svg PUBLIC "-//W3C//DTD SVG 1.1//EN"
 "http://www.w3.org/Graphics/SVG/1.1/DTD/svg11.dtd">
<!-- Generated by graphviz version 2.40.1 (20161225.0304)
 -->
<!-- Title: FST Pages: 1 -->
<svg width="612pt" height="38pt"
 viewBox="0.00 0.00 612.00 38.02" xmlns="http://www.w3.org/2000/svg" xmlns:xlink="http://www.w3.org/1999/xlink">
<g id="graph0" class="graph" transform="scale(.6876 .6876) rotate(0) translate(4 51.2839)">
<title>FST</title>
<polygon fill="#ffffff" stroke="transparent" points="-4,4 -4,-51.2839 886,-51.2839 886,4 -4,4"/>
<!-- 0 -->
<g id="node1" class="node">
<title>0</title>
<ellipse fill="none" stroke="#000000" stroke-width="2" cx="18" cy="-25.2839" rx="18" ry="18"/>
<text text-anchor="middle" x="18" y="-21.5839" font-family="Times,serif" font-size="14.00" fill="#000000">0</text>
</g>
<!-- 1 -->
<g id="node2" class="node">
<title>1</title>
<ellipse fill="none" stroke="#000000" cx="132" cy="-25.2839" rx="18" ry="18"/>
<text text-anchor="middle" x="132" y="-21.5839" font-family="Times,serif" font-size="14.00" fill="#000000">1</text>
</g>
<!-- 0&#45;&gt;1 -->
<g id="edge1" class="edge">
<title>0&#45;&gt;1</title>
<path fill="none" stroke="#000000" d="M36.0636,-25.2839C54.2173,-25.2839 82.464,-25.2839 103.6141,-25.2839"/>
<polygon fill="#000000" stroke="#000000" points="103.6434,-28.784 113.6434,-25.2839 103.6433,-21.784 103.6434,-28.784"/>
<text text-anchor="middle" x="75" y="-29.0839" font-family="Times,serif" font-size="14.00" fill="#000000">turn:turn</text>
</g>
<!-- 2 -->
<g id="node3" class="node">
<title>2</title>
<ellipse fill="none" stroke="#000000" cx="319" cy="-25.2839" rx="18" ry="18"/>
<text text-anchor="middle" x="319" y="-21.5839" font-family="Times,serif" font-size="14.00" fill="#000000">2</text>
</g>
<!-- 1&#45;&gt;2 -->
<g id="edge2" class="edge">
<title>1&#45;&gt;2</title>
<path fill="none" stroke="#000000" d="M150.2708,-25.2839C183.0326,-25.2839 251.9689,-25.2839 290.8239,-25.2839"/>
<polygon fill="#000000" stroke="#000000" points="290.9304,-28.784 300.9303,-25.2839 290.9303,-21.784 290.9304,-28.784"/>
<text text-anchor="middle" x="225.5" y="-29.0839" font-family="Times,serif" font-size="14.00" fill="#000000">&lt;eps&gt;:__begin__state</text>
</g>
<!-- 3 -->
<g id="node4" class="node">
<title>3</title>
<ellipse fill="none" stroke="#000000" cx="421" cy="-25.2839" rx="18" ry="18"/>
<text text-anchor="middle" x="421" y="-21.5839" font-family="Times,serif" font-size="14.00" fill="#000000">3</text>
</g>
<!-- 2&#45;&gt;3 -->
<g id="edge3" class="edge">
<title>2&#45;&gt;3</title>
<path fill="none" stroke="#000000" d="M337.2356,-25.2839C352.683,-25.2839 375.0851,-25.2839 392.836,-25.2839"/>
<polygon fill="#000000" stroke="#000000" points="392.9224,-28.784 402.9223,-25.2839 392.9223,-21.784 392.9224,-28.784"/>
<text text-anchor="middle" x="370" y="-29.0839" font-family="Times,serif" font-size="14.00" fill="#000000">on:on</text>
</g>
<!-- 2&#45;&gt;3 -->
<g id="edge4" class="edge">
<title>2&#45;&gt;3</title>
<path fill="none" stroke="#000000" d="M333.7129,-14.6183C339.1808,-11.2637 345.6133,-7.9911 352,-6.2839 367.4573,-2.152 372.5427,-2.152 388,-6.2839 391.1933,-7.1375 394.3981,-8.3824 397.4881,-9.8333"/>
<polygon fill="#000000" stroke="#000000" points="395.83,-12.9157 406.2871,-14.6183 399.1742,-6.7661 395.83,-12.9157"/>
<text text-anchor="middle" x="370" y="-10.0839" font-family="Times,serif" font-size="14.00" fill="#000000">off:off</text>
</g>
<!-- 4 -->
<g id="node5" class="node">
<title>4</title>
<ellipse fill="none" stroke="#000000" cx="597" cy="-25.2839" rx="18" ry="18"/>
<text text-anchor="middle" x="597" y="-21.5839" font-family="Times,serif" font-size="14.00" fill="#000000">4</text>
</g>
<!-- 3&#45;&gt;4 -->
<g id="edge5" class="edge">
<title>3&#45;&gt;4</title>
<path fill="none" stroke="#000000" d="M439.1722,-25.2839C469.8158,-25.2839 531.9875,-25.2839 568.4868,-25.2839"/>
<polygon fill="#000000" stroke="#000000" points="568.9267,-28.784 578.9267,-25.2839 568.9266,-21.784 568.9267,-28.784"/>
<text text-anchor="middle" x="509" y="-29.0839" font-family="Times,serif" font-size="14.00" fill="#000000">&lt;eps&gt;:__end__state</text>
</g>
<!-- 5 -->
<g id="node6" class="node">
<title>5</title>
<ellipse fill="none" stroke="#000000" cx="736" cy="-25.2839" rx="18" ry="18"/>
<text text-anchor="middle" x="736" y="-21.5839" font-family="Times,serif" font-size="14.00" fill="#000000">5</text>
</g>
<!-- 4&#45;&gt;5 -->
<g id="edge6" class="edge">
<title>4&#45;&gt;5</title>
<path fill="none" stroke="#000000" d="M615.1718,-25.2839C638.6893,-25.2839 679.9228,-25.2839 707.5942,-25.2839"/>
<polygon fill="#000000" stroke="#000000" points="707.8238,-28.784 717.8237,-25.2839 707.8237,-21.784 707.8238,-28.784"/>
<text text-anchor="middle" x="666.5" y="-29.0839" font-family="Times,serif" font-size="14.00" fill="#000000">the:the</text>
</g>
<!-- 4&#45;&gt;5 -->
<g id="edge7" class="edge">
<title>4&#45;&gt;5</title>
<path fill="none" stroke="#000000" d="M611.7129,-14.6183C617.1808,-11.2637 623.6133,-7.9911 630,-6.2839 661.3439,2.0946 671.6561,2.0946 703,-6.2839 706.1933,-7.1375 709.3981,-8.3824 712.4881,-9.8333"/>
<polygon fill="#000000" stroke="#000000" points="710.83,-12.9157 721.2871,-14.6183 714.1742,-6.7661 710.83,-12.9157"/>
<text text-anchor="middle" x="666.5" y="-10.0839" font-family="Times,serif" font-size="14.00" fill="#000000">&lt;eps&gt;:&lt;eps&gt;</text>
</g>
<!-- 6 -->
<g id="node7" class="node">
<title>6</title>
<ellipse fill="none" stroke="#000000" cx="860" cy="-25.2839" rx="18" ry="18"/>
<ellipse fill="none" stroke="#000000" cx="860" cy="-25.2839" rx="22" ry="22"/>
<text text-anchor="middle" x="860" y="-21.5839" font-family="Times,serif" font-size="14.00" fill="#000000">6</text>
</g>
<!-- 5&#45;&gt;6 -->
<g id="edge8" class="edge">
<title>5&#45;&gt;6</title>
<path fill="none" stroke="#000000" d="M754.0307,-25.2839C773.2529,-25.2839 804.0924,-25.2839 827.5577,-25.2839"/>
<polygon fill="#000000" stroke="#000000" points="827.7519,-28.784 837.7519,-25.2839 827.7519,-21.784 827.7519,-28.784"/>
<text text-anchor="middle" x="796" y="-29.0839" font-family="Times,serif" font-size="14.00" fill="#000000">light:light</text>
</g>
</g>
</svg>
