<?xml version="1.0" encoding="UTF-8" standalone="no"?>
<!DOCTYPE svg PUBLIC "-//W3C//DTD SVG 1.1//EN"
 "http://www.w3.org/Graphics/SVG/1.1/DTD/svg11.dtd">
<!-- Generated by graphviz version 2.40.1 (20161225.0304)
 -->
<!-- Title: FST Pages: 1 -->
<svg width="338pt" height="83pt"
 viewBox="0.00 0.00 338.00 83.00" xmlns="http://www.w3.org/2000/svg" xmlns:xlink="http://www.w3.org/1999/xlink">
<g id="graph0" class="graph" transform="scale(1 1) rotate(0) translate(4 79)">
<title>FST</title>
<polygon fill="#ffffff" stroke="transparent" points="-4,4 -4,-79 334,-79 334,4 -4,4"/>
<!-- 0 -->
<g id="node1" class="node">
<title>0</title>
<ellipse fill="none" stroke="#000000" stroke-width="2" cx="18" cy="-22" rx="18" ry="18"/>
<text text-anchor="middle" x="18" y="-18.3" font-family="Times,serif" font-size="14.00" fill="#000000">0</text>
</g>
<!-- 1 -->
<g id="node2" class="node">
<title>1</title>
<ellipse fill="none" stroke="#000000" cx="156.5" cy="-57" rx="18" ry="18"/>
<text text-anchor="middle" x="156.5" y="-53.3" font-family="Times,serif" font-size="14.00" fill="#000000">1</text>
</g>
<!-- 0&#45;&gt;1 -->
<g id="edge1" class="edge">
<title>0&#45;&gt;1</title>
<path fill="none" stroke="#000000" d="M35.5411,-26.4328C59.0352,-32.3699 100.9777,-42.9691 128.7721,-49.9929"/>
<polygon fill="#000000" stroke="#000000" points="128.1111,-53.4359 138.6638,-52.4927 129.8262,-46.6492 128.1111,-53.4359"/>
<text text-anchor="middle" x="80" y="-47.8" font-family="Times,serif" font-size="14.00" fill="#000000">hello:hello</text>
</g>
<!-- 2 -->
<g id="node3" class="node">
<title>2</title>
<ellipse fill="none" stroke="#000000" cx="308" cy="-22" rx="18" ry="18"/>
<ellipse fill="none" stroke="#000000" cx="308" cy="-22" rx="22" ry="22"/>
<text text-anchor="middle" x="308" y="-18.3" font-family="Times,serif" font-size="14.00" fill="#000000">2</text>
</g>
<!-- 1&#45;&gt;2 -->
<g id="edge2" class="edge">
<title>1&#45;&gt;2</title>
<path fill="none" stroke="#000000" d="M174.1755,-52.9166C199.2811,-47.1166 245.6564,-36.4028 276.6703,-29.2379"/>
<polygon fill="#000000" stroke="#000000" points="277.5907,-32.6175 286.5462,-26.9563 276.015,-25.7972 277.5907,-32.6175"/>
<text text-anchor="middle" x="237.5" y="-48.8" font-family="Times,serif" font-size="14.00" fill="#000000">world:world</text>
</g>
<!-- 2&#45;&gt;0 -->
<g id="edge3" class="edge">
<title>2&#45;&gt;0</title>
<path fill="none" stroke="#000000" d="M285.9105,-20.1466C251.3698,-17.4772 182.4688,-13.0715 124,-15 97.5086,-15.8738 67.3536,-17.9727 45.9979,-19.6457"/>
<polygon fill="#000000" stroke="#000000" points="45.6752,-16.1603 35.9873,-20.4493 46.2354,-23.1378 45.6752,-16.1603"/>
<text text-anchor="middle" x="156.5" y="-18.8" font-family="Times,serif" font-size="14.00" fill="#000000">&lt;eps&gt;:nope</text>
</g>
</g>
</svg>
