<?xml version="1.0" encoding="UTF-8" standalone="no"?>
<!-- Created with Inkscape (http://www.inkscape.org/) -->

<svg
   xmlns:dc="http://purl.org/dc/elements/1.1/"
   xmlns:cc="http://creativecommons.org/ns#"
   xmlns:rdf="http://www.w3.org/1999/02/22-rdf-syntax-ns#"
   xmlns:svg="http://www.w3.org/2000/svg"
   xmlns="http://www.w3.org/2000/svg"
   xmlns:sodipodi="http://sodipodi.sourceforge.net/DTD/sodipodi-0.dtd"
   xmlns:inkscape="http://www.inkscape.org/namespaces/inkscape"
   width="93.691544mm"
   height="20.111898mm"
   viewBox="0 0 93.691543 20.111898"
   version="1.1"
   id="svg8"
   sodipodi:docname="voice2json.svg"
   inkscape:version="0.92.3 (2405546, 2018-03-11)">
  <defs
     id="defs2">
    <marker
       inkscape:stockid="TriangleOutL"
       orient="auto"
       refY="0"
       refX="0"
       id="TriangleOutL"
       style="overflow:visible"
       inkscape:isstock="true">
      <path
         id="path1091"
         d="M 5.77,0 -2.88,5 V -5 Z"
         style="fill:#225500;fill-opacity:1;fill-rule:evenodd;stroke:#225500;stroke-width:1.00000003pt;stroke-opacity:1"
         transform="scale(0.8)"
         inkscape:connector-curvature="0" />
    </marker>
  </defs>
  <sodipodi:namedview
     id="base"
     pagecolor="#ffffff"
     bordercolor="#666666"
     borderopacity="1.0"
     inkscape:pageopacity="0.0"
     inkscape:pageshadow="2"
     inkscape:zoom="3.959798"
     inkscape:cx="96.580833"
     inkscape:cy="89.102718"
     inkscape:document-units="mm"
     inkscape:current-layer="layer1"
     showgrid="false"
     inkscape:snap-global="false"
     inkscape:window-width="2560"
     inkscape:window-height="1372"
     inkscape:window-x="0"
     inkscape:window-y="0"
     inkscape:window-maximized="1"
     fit-margin-top="0"
     fit-margin-left="0"
     fit-margin-right="0"
     fit-margin-bottom="0" />
  <metadata
     id="metadata5">
    <rdf:RDF>
      <cc:Work
         rdf:about="">
        <dc:format>image/svg+xml</dc:format>
        <dc:type
           rdf:resource="http://purl.org/dc/dcmitype/StillImage" />
        <dc:title />
      </cc:Work>
    </rdf:RDF>
  </metadata>
  <g
     inkscape:label="Layer 1"
     inkscape:groupmode="layer"
     id="layer1"
     transform="translate(-17.51392,-88.884522)">
    <path
       inkscape:tile-y0="34.274052"
       inkscape:tile-x0="74.56954"
       inkscape:connector-curvature="0"
       id="use866"
       d="M 75.981217,90.394952 V 107.48599"
       style="fill:none;stroke:#225500;stroke-width:0.38058069;stroke-linecap:butt;stroke-linejoin:miter;stroke-opacity:1" />
    <path
       inkscape:tile-y0="34.274052"
       inkscape:tile-x0="74.56954"
       inkscape:connector-curvature="0"
       id="use874"
       d="m 85.647958,97.371698 v 3.137552"
       style="fill:none;stroke:#225500;stroke-width:0.38058069;stroke-linecap:butt;stroke-linejoin:miter;stroke-opacity:1" />
    <path
       inkscape:tile-y0="34.274052"
       inkscape:tile-x0="74.56954"
       inkscape:connector-curvature="0"
       id="use882"
       d="M 95.314705,88.884522 V 108.99642"
       style="fill:none;stroke:#225500;stroke-width:0.38058069;stroke-linecap:butt;stroke-linejoin:miter;stroke-opacity:1" />
    <path
       inkscape:connector-curvature="0"
       id="path869"
       style="font-style:normal;font-weight:normal;font-size:medium;line-height:1.25;font-family:sans-serif;letter-spacing:0px;word-spacing:0px;fill:#225500;fill-opacity:1;stroke:none;stroke-width:0.26458332"
       d="m 69.443573,96.679033 v -0.404937 h -0.111675 q -0.448525,0 -0.601638,0.208147 -0.15131,0.20815 -0.15131,0.82957 v 0.67207 q 0,0.4245 -0.09729,0.58786 -0.09729,0.16337 -0.353044,0.16337 h -0.109897 v 0.40179 h 0.109897 q 0.257571,0 0.353044,0.16021 0.09729,0.16337 0.09729,0.582189 v 0.674908 q 0,0.62131 0.15131,0.82674 0.153129,0.20815 0.601638,0.20815 h 0.111675 v -0.40179 h -0.122462 q -0.253976,0 -0.331429,-0.12363 -0.07745,-0.12363 -0.07745,-0.52038 v -0.697428 q 0,-0.441529 -0.08287,-0.641099 -0.08109,-0.19932 -0.279188,-0.26996 0.199957,-0.0757 0.281006,-0.27564 0.08109,-0.19932 0.08109,-0.63833 v -0.69736 q 0,-0.39675 0.07745,-0.52038 0.07745,-0.12363 0.331429,-0.12363 z" />
    <path
       sodipodi:nodetypes="ccscssssccscsscsccsssscccssscc"
       d="m 71.796914,95.006665 v -0.368992 h -0.101735 c -0.27244,0 -0.455152,0.06308 -0.548157,0.189858 -0.09192,0.126782 -0.137856,0.378453 -0.137856,0.755835 v 2.495296 c 0,0.257979 -0.02949,0.436483 -0.08864,0.535512 -0.05911,0.09903 -0.1663,0.148858 -0.321651,0.148858 h -0.100119 v 0.365839 h 0.100119 c 0.156442,0 0.263673,0.05046 0.321651,0.145705 0.05911,0.09903 0.08864,0.276271 0.08864,0.530465 v 2.486399 c 0,0.37719 0.04594,0.62823 0.137856,0.75325 0.09301,0.12678 0.286491,0.27722 0.548157,0.20184 l 0.101735,-0.0126 V 102.8681 H 71.68532 c -0.15426,0 -0.254904,-0.0379 -0.301974,-0.11291 -0.04707,-0.0751 -0.07059,-0.23338 -0.07059,-0.47433 v -2.506889 c 0,-0.268077 -0.02505,-0.462981 -0.07551,-0.584086 -0.04925,-0.121105 -0.134058,-0.203103 -0.254379,-0.245995 0.121452,-0.04415 0.206784,-0.129305 0.256036,-0.251041 0.04925,-0.121105 0.0739,-0.314747 0.0739,-0.581557 v -2.518255 c 0,-0.240949 0.02343,-0.399269 0.07058,-0.474329 0.04707,-0.07506 0.147715,-0.112906 0.301975,-0.112906 z"
       style="font-style:normal;font-weight:normal;font-size:medium;line-height:1.25;font-family:sans-serif;letter-spacing:0px;word-spacing:0px;fill:#44aa00;fill-opacity:1;stroke:none;stroke-width:0.26458332"
       id="path874"
       inkscape:connector-curvature="0" />
    <path
       inkscape:connector-curvature="0"
       id="path878"
       style="font-style:normal;font-weight:normal;font-size:medium;line-height:1.25;font-family:sans-serif;letter-spacing:0px;word-spacing:0px;fill:#66ff00;fill-opacity:1;stroke:none;stroke-width:0.26458332"
       d="m 74.213609,93.117184 v -0.368992 h -0.101735 c -0.27244,0 -0.455152,0.06308 -0.548157,0.189858 -0.09192,0.126782 -0.137856,0.378453 -0.137856,0.755835 v 4.400179 c 0,0.257979 -0.02949,0.436483 -0.08864,0.535512 -0.05911,0.09903 -0.1663,0.148858 -0.321651,0.148858 h -0.100119 v 0.365839 h 0.100119 c 0.156442,0 0.263673,0.05046 0.321651,0.145705 0.05911,0.09903 0.08864,0.276271 0.08864,0.530466 v 4.335756 c 0,0.37719 0.04594,0.62823 0.137856,0.75325 0.09301,0.12678 0.276074,0.19086 0.548157,0.20184 l 0.101735,-0.0126 v -0.36583 h -0.111594 c -0.15426,0 -0.254904,-0.0379 -0.301974,-0.11291 -0.04707,-0.0751 -0.07059,-0.23338 -0.07059,-0.47433 v -4.356252 c 0,-0.268072 -0.02505,-0.462976 -0.07551,-0.584081 -0.04925,-0.121105 -0.134058,-0.203103 -0.254379,-0.245995 0.121452,-0.04415 0.206784,-0.129305 0.256036,-0.251041 0.04925,-0.121105 0.0739,-0.314747 0.0739,-0.581557 v -4.423138 c 0,-0.240949 0.02343,-0.399269 0.07058,-0.474329 0.04707,-0.07506 0.147715,-0.112906 0.301975,-0.112906 z"
       sodipodi:nodetypes="ccscssssccscsscsccsssscccssscc" />
    <path
       sodipodi:nodetypes="ccscssssccscsscsccsssscccssscc"
       d="m 77.748818,93.117184 v -0.368992 h 0.101735 c 0.27244,0 0.455152,0.06308 0.548157,0.189858 0.09192,0.126782 0.137856,0.378453 0.137856,0.755835 v 4.400179 c 0,0.257979 0.02949,0.436483 0.08864,0.535512 0.05911,0.09903 0.1663,0.148858 0.321651,0.148858 h 0.100119 v 0.365839 h -0.100119 c -0.156442,0 -0.263673,0.05046 -0.321651,0.145705 -0.05911,0.09903 -0.08864,0.276271 -0.08864,0.530466 v 4.335756 c 0,0.37719 -0.04594,0.62823 -0.137856,0.75325 -0.09301,0.12678 -0.276074,0.19086 -0.548157,0.20184 l -0.101735,-0.0126 v -0.36583 h 0.111594 c 0.15426,0 0.254904,-0.0379 0.301974,-0.11291 0.04707,-0.0751 0.07059,-0.23338 0.07059,-0.47433 v -4.356252 c 0,-0.268072 0.02505,-0.462976 0.07551,-0.584081 0.04925,-0.121105 0.134058,-0.203103 0.254379,-0.245995 -0.121452,-0.04415 -0.206784,-0.129305 -0.256036,-0.251041 -0.04925,-0.121105 -0.0739,-0.314747 -0.0739,-0.581557 v -4.423138 c 0,-0.240949 -0.02343,-0.399269 -0.07058,-0.474329 -0.04707,-0.07506 -0.147715,-0.112906 -0.301975,-0.112906 z"
       style="font-style:normal;font-weight:normal;font-size:medium;line-height:1.25;font-family:sans-serif;letter-spacing:0px;word-spacing:0px;fill:#66ff00;fill-opacity:1;stroke:none;stroke-width:0.26458332"
       id="path954"
       inkscape:connector-curvature="0" />
    <path
       inkscape:connector-curvature="0"
       id="path956"
       style="font-style:normal;font-weight:normal;font-size:medium;line-height:1.25;font-family:sans-serif;letter-spacing:0px;word-spacing:0px;fill:#44aa00;fill-opacity:1;stroke:none;stroke-width:0.26458332"
       d="m 80.165504,95.006665 v -0.368992 h 0.101735 c 0.27244,0 0.455152,0.06308 0.548157,0.189858 0.09192,0.126782 0.137856,0.378453 0.137856,0.755835 v 2.495296 c 0,0.257979 0.02949,0.436483 0.08864,0.535512 0.05911,0.09903 0.1663,0.148858 0.321651,0.148858 h 0.100119 v 0.365839 h -0.100119 c -0.156442,0 -0.263673,0.05046 -0.321651,0.145705 -0.05911,0.09903 -0.08864,0.276271 -0.08864,0.530465 v 2.486399 c 0,0.37719 -0.04594,0.62823 -0.137856,0.75325 -0.09301,0.12678 -0.286491,0.27722 -0.548157,0.20184 l -0.101735,-0.0126 v -0.36583 h 0.111594 c 0.15426,0 0.254904,-0.0379 0.301974,-0.11291 0.04707,-0.0751 0.07059,-0.23338 0.07059,-0.47433 v -2.506889 c 0,-0.268077 0.02505,-0.462981 0.07551,-0.584086 0.04925,-0.121105 0.134058,-0.203103 0.254379,-0.245995 -0.121452,-0.04415 -0.206784,-0.129305 -0.256036,-0.251041 -0.04925,-0.121105 -0.0739,-0.314747 -0.0739,-0.581557 v -2.518255 c 0,-0.240949 -0.02343,-0.399269 -0.07058,-0.474329 -0.04707,-0.07506 -0.147715,-0.112906 -0.301975,-0.112906 z"
       sodipodi:nodetypes="ccscssssccscsscsccsssscccssscc" />
    <path
       d="m 82.518843,96.679033 v -0.404937 h 0.111675 q 0.448525,0 0.601638,0.208147 0.15131,0.20815 0.15131,0.82957 v 0.67207 q 0,0.4245 0.09729,0.58786 0.09729,0.16337 0.353044,0.16337 h 0.109897 v 0.40179 H 83.8338 q -0.257571,0 -0.353044,0.16021 -0.09729,0.16337 -0.09729,0.582189 v 0.674908 q 0,0.62131 -0.15131,0.82674 -0.153129,0.20815 -0.601638,0.20815 h -0.111675 v -0.40179 h 0.122462 q 0.253976,0 0.331429,-0.12363 0.07745,-0.12363 0.07745,-0.52038 v -0.697428 q 0,-0.441529 0.08287,-0.641099 0.08109,-0.19932 0.279188,-0.26996 -0.199957,-0.0757 -0.281006,-0.27564 -0.08109,-0.19932 -0.08109,-0.63833 v -0.69736 q 0,-0.39675 -0.07745,-0.52038 -0.07745,-0.12363 -0.331429,-0.12363 z"
       style="font-style:normal;font-weight:normal;font-size:medium;line-height:1.25;font-family:sans-serif;letter-spacing:0px;word-spacing:0px;fill:#225500;fill-opacity:1;stroke:none;stroke-width:0.26458332"
       id="path958"
       inkscape:connector-curvature="0" />
    <path
       d="m 88.77708,96.679033 v -0.404937 h -0.111675 q -0.448525,0 -0.601638,0.208147 -0.15131,0.20815 -0.15131,0.82957 v 0.67207 q 0,0.4245 -0.09729,0.58786 -0.09729,0.16337 -0.353044,0.16337 h -0.109897 v 0.40179 h 0.109897 q 0.257571,0 0.353044,0.16021 0.09729,0.16337 0.09729,0.582189 v 0.674908 q 0,0.62131 0.15131,0.82674 0.153129,0.20815 0.601638,0.20815 h 0.111675 v -0.40179 h -0.122462 q -0.253976,0 -0.331429,-0.12363 -0.07745,-0.12363 -0.07745,-0.52038 v -0.697428 q 0,-0.441529 -0.08287,-0.641099 -0.08109,-0.19932 -0.279188,-0.26996 0.199957,-0.0757 0.281006,-0.27564 0.08109,-0.19932 0.08109,-0.63833 v -0.69736 q 0,-0.39675 0.07745,-0.52038 0.07745,-0.12363 0.331429,-0.12363 z"
       style="font-style:normal;font-weight:normal;font-size:medium;line-height:1.25;font-family:sans-serif;letter-spacing:0px;word-spacing:0px;fill:#225500;fill-opacity:1;stroke:none;stroke-width:0.26458332"
       id="path960"
       inkscape:connector-curvature="0" />
    <path
       inkscape:connector-curvature="0"
       id="path962"
       style="font-style:normal;font-weight:normal;font-size:medium;line-height:1.25;font-family:sans-serif;letter-spacing:0px;word-spacing:0px;fill:#225500;fill-opacity:1;stroke:none;stroke-width:0.26458332"
       d="m 104.26903,96.679033 v -0.404937 h 0.11168 q 0.44852,0 0.60164,0.208147 0.15131,0.20815 0.15131,0.82957 v 0.67207 q 0,0.4245 0.0973,0.58786 0.0973,0.16337 0.35304,0.16337 h 0.1099 v 0.40179 h -0.1099 q -0.25757,0 -0.35304,0.16021 -0.0973,0.16337 -0.0973,0.582189 v 0.674908 q 0,0.62131 -0.15131,0.82674 -0.15313,0.20815 -0.60164,0.20815 h -0.11168 v -0.40179 h 0.12247 q 0.25397,0 0.33142,-0.12363 0.0774,-0.12363 0.0774,-0.52038 v -0.697428 q 0,-0.441529 0.0829,-0.641099 0.0811,-0.19932 0.27919,-0.26996 -0.19995,-0.0757 -0.281,-0.27564 -0.0811,-0.19932 -0.0811,-0.63833 v -0.69736 q 0,-0.39675 -0.0774,-0.52038 -0.0775,-0.12363 -0.33143,-0.12363 z" />
    <path
       sodipodi:nodetypes="ccscssssccscsscsccsssscccssscc"
       d="m 93.547107,93.117184 v -0.368992 h -0.101735 c -0.27244,0 -0.455152,0.06308 -0.548157,0.189858 -0.09192,0.126782 -0.137856,0.378453 -0.137856,0.755835 v 4.400179 c 0,0.257979 -0.02949,0.436483 -0.08864,0.535512 -0.05911,0.09903 -0.1663,0.148858 -0.321651,0.148858 h -0.100119 v 0.365839 h 0.100119 c 0.156442,0 0.263673,0.05046 0.321651,0.145705 0.05911,0.09903 0.08864,0.276271 0.08864,0.530466 v 4.335756 c 0,0.37719 0.04594,0.62823 0.137856,0.75325 0.09301,0.12678 0.276074,0.19086 0.548157,0.20184 l 0.101735,-0.0126 v -0.36583 h -0.111594 c -0.15426,0 -0.254904,-0.0379 -0.301974,-0.11291 -0.04707,-0.0751 -0.07059,-0.23338 -0.07059,-0.47433 v -4.356252 c 0,-0.268072 -0.02505,-0.462976 -0.07551,-0.584081 -0.04925,-0.121105 -0.134058,-0.203103 -0.254379,-0.245995 0.121452,-0.04415 0.206784,-0.129305 0.256036,-0.251041 0.04925,-0.121105 0.0739,-0.314747 0.0739,-0.581557 v -4.423138 c 0,-0.240949 0.02343,-0.399269 0.07058,-0.474329 0.04707,-0.07506 0.147715,-0.112906 0.301975,-0.112906 z"
       style="font-style:normal;font-weight:normal;font-size:medium;line-height:1.25;font-family:sans-serif;letter-spacing:0px;word-spacing:0px;fill:#66ff00;fill-opacity:1;stroke:none;stroke-width:0.26458332"
       id="path966"
       inkscape:connector-curvature="0" />
    <path
       inkscape:connector-curvature="0"
       id="path968"
       style="font-style:normal;font-weight:normal;font-size:medium;line-height:1.25;font-family:sans-serif;letter-spacing:0px;word-spacing:0px;fill:#44aa00;fill-opacity:1;stroke:none;stroke-width:0.26458332"
       d="m 91.13042,95.006665 v -0.368992 h -0.101735 c -0.27244,0 -0.455152,0.06308 -0.548157,0.189858 -0.09192,0.126782 -0.137856,0.378453 -0.137856,0.755835 v 2.495296 c 0,0.257979 -0.02949,0.436483 -0.08864,0.535512 -0.05911,0.09903 -0.1663,0.148858 -0.321651,0.148858 h -0.100119 v 0.365839 h 0.100119 c 0.156442,0 0.263673,0.05046 0.321651,0.145705 0.05911,0.09903 0.08864,0.276271 0.08864,0.530465 v 2.486399 c 0,0.37719 0.04594,0.62823 0.137856,0.75325 0.09301,0.12678 0.286491,0.27722 0.548157,0.20184 l 0.101735,-0.0126 v -0.36583 h -0.111594 c -0.15426,0 -0.254904,-0.0379 -0.301974,-0.11291 -0.04707,-0.0751 -0.07059,-0.23338 -0.07059,-0.47433 v -2.506889 c 0,-0.268077 -0.02505,-0.462981 -0.07551,-0.584086 -0.04925,-0.121105 -0.134058,-0.203103 -0.254379,-0.245995 0.121452,-0.04415 0.206784,-0.129305 0.256036,-0.251041 0.04925,-0.121105 0.0739,-0.314747 0.0739,-0.581557 v -2.518255 c 0,-0.240949 0.02343,-0.399269 0.07058,-0.474329 0.04707,-0.07506 0.147715,-0.112906 0.301975,-0.112906 z"
       sodipodi:nodetypes="ccscssssccscsscsccsssscccssscc" />
    <path
       sodipodi:nodetypes="ccscssssccscsscsccsssscccssscc"
       d="m 101.91571,95.006665 v -0.368992 h 0.10174 c 0.27244,0 0.45515,0.06308 0.54815,0.189858 0.0919,0.126782 0.13786,0.378453 0.13786,0.755835 v 2.495296 c 0,0.257979 0.0295,0.436483 0.0886,0.535512 0.0591,0.09903 0.1663,0.148858 0.32165,0.148858 h 0.10012 v 0.365839 h -0.10012 c -0.15644,0 -0.26367,0.05046 -0.32165,0.145705 -0.0591,0.09903 -0.0886,0.276271 -0.0886,0.530465 v 2.486399 c 0,0.37719 -0.0459,0.62823 -0.13786,0.75325 -0.093,0.12678 -0.28649,0.27722 -0.54815,0.20184 l -0.10174,-0.0126 v -0.36583 h 0.11159 c 0.15426,0 0.25491,-0.0379 0.30198,-0.11291 0.0471,-0.0751 0.0706,-0.23338 0.0706,-0.47433 v -2.506889 c 0,-0.268077 0.025,-0.462981 0.0755,-0.584086 0.0493,-0.121105 0.13406,-0.203103 0.25438,-0.245995 -0.12145,-0.04415 -0.20679,-0.129305 -0.25604,-0.251041 -0.0493,-0.121105 -0.0739,-0.314747 -0.0739,-0.581557 v -2.518255 c 0,-0.240949 -0.0234,-0.399269 -0.0706,-0.474329 -0.0471,-0.07506 -0.14771,-0.112906 -0.30197,-0.112906 z"
       style="font-style:normal;font-weight:normal;font-size:medium;line-height:1.25;font-family:sans-serif;letter-spacing:0px;word-spacing:0px;fill:#44aa00;fill-opacity:1;stroke:none;stroke-width:0.26458332"
       id="path970"
       inkscape:connector-curvature="0" />
    <path
       inkscape:connector-curvature="0"
       id="path972"
       style="font-style:normal;font-weight:normal;font-size:medium;line-height:1.25;font-family:sans-serif;letter-spacing:0px;word-spacing:0px;fill:#66ff00;fill-opacity:1;stroke:none;stroke-width:0.26458332"
       d="m 99.499027,93.117184 v -0.368992 h 0.101735 c 0.27244,0 0.455158,0.06308 0.548158,0.189858 0.0919,0.126782 0.13786,0.378453 0.13786,0.755835 v 4.400179 c 0,0.257979 0.0295,0.436483 0.0886,0.535512 0.0591,0.09903 0.1663,0.148858 0.32165,0.148858 h 0.10012 v 0.365839 h -0.10012 c -0.15644,0 -0.26367,0.05046 -0.32165,0.145705 -0.0591,0.09903 -0.0886,0.276271 -0.0886,0.530466 v 4.335756 c 0,0.37719 -0.0459,0.62823 -0.13786,0.75325 -0.093,0.12678 -0.276075,0.19086 -0.548158,0.20184 l -0.101735,-0.0126 v -0.36583 h 0.111594 c 0.15426,0 0.254904,-0.0379 0.301974,-0.11291 0.04707,-0.0751 0.07059,-0.23338 0.07059,-0.47433 v -4.356252 c 0,-0.268072 0.02501,-0.462976 0.07549,-0.584081 0.0493,-0.121105 0.13407,-0.203103 0.25438,-0.245995 -0.12144,-0.04415 -0.20679,-0.129305 -0.25604,-0.251041 -0.0493,-0.121105 -0.07388,-0.314747 -0.07388,-0.581557 v -4.423138 c 0,-0.240949 -0.02343,-0.399269 -0.07058,-0.474329 -0.04707,-0.07506 -0.147715,-0.112906 -0.301975,-0.112906 z"
       sodipodi:nodetypes="ccscssssccscsscsccsssscccssscc" />
    <path
       style="fill:none;stroke:#55d400;stroke-width:0.38058069;stroke-linecap:butt;stroke-linejoin:miter;stroke-opacity:1"
       d="M 97.731403,90.394952 V 107.48599"
       id="path976"
       inkscape:connector-curvature="0"
       inkscape:tile-x0="74.56954"
       inkscape:tile-y0="34.274052" />
    <path
       style="fill:none;stroke:#225500;stroke-width:0.403;stroke-linecap:butt;stroke-linejoin:miter;stroke-miterlimit:4;stroke-dasharray:none;stroke-opacity:1;marker-end:url(#TriangleOutL)"
       d="m 64.17549,98.931598 h 44.74024"
       id="path922"
       inkscape:connector-curvature="0" />
    <text
       xml:space="preserve"
       style="font-style:normal;font-weight:normal;font-size:8.63051987px;line-height:1.25;font-family:sans-serif;letter-spacing:0px;word-spacing:0px;fill:#000000;fill-opacity:1;stroke:none;stroke-width:0.26458332"
       x="17.256859"
       y="101.31258"
       id="text839"><tspan
         sodipodi:role="line"
         id="tspan837"
         x="17.256859"
         y="101.31258"
         style="stroke-width:0.26458332">voice2json</tspan></text>
  </g>
</svg>
